# xmcd
#
# Track frame offsets:
#	150
#	13455
#	29027
#	45253
#	62727
#	76520
#
# Disc length: 1209 seconds
#
# Revision: 0
# Processed by: cddbd v1.5.2PL0 Copyright (c) Steve Scherf et al.
# Submitted via: EasyCDDAExtractor 2011.3.0.0
#
DISCID=4204b706
DTITLE=Rachel Proctor - Only Lonely Girl
DYEAR=1900
DGENRE=
TTITLE0=Baby Don't Let Me Go
TTITLE1=Cool Water
TTITLE2=Only Lonely Girl
TTITLE3=Stronger Hearts
TTITLE4=Better Off Now
TTITLE5=The Noise
EXTD=
EXTT0=
EXTT1=
EXTT2=
EXTT3=
EXTT4=
EXTT5=
PLAYORDER=
